<svg width="277" height="80" viewBox="0 0 277 80" fill="none" xmlns="http://www.w3.org/2000/svg">
<g clip-path="url(#clip0_101:18037)">
<path d="M4.6172 62.2873L15.196 38.087H-0.0164566V31.0658H24.4644V36.6364L13.4647 62.2873H4.6172Z" fill="#1B249E"/>
<path d="M45.7499 62.242L40.5086 51.7583H36.3898V62.242H28.3388V31.0216H43.9711C50.8995 31.0216 54.8339 35.6089 54.8339 41.4126C54.8339 46.844 51.5106 49.7453 48.6104 50.775L54.9765 62.242H45.7499ZM46.6393 41.3662C46.6393 39.2604 44.8605 38.0429 42.7547 38.0429H36.3886V44.7371H42.7547C44.8605 44.7371 46.6393 43.5648 46.6393 41.3662Z" fill="#1B249E"/>
<path d="M58.8452 62.2873V31.0658H66.895V55.2649H79.4404V62.2873H58.8452Z" fill="#1B249E"/>
<path d="M103.786 26.3948L105.483 27.8895L110.132 31.9767L106.059 35.5546L105.486 35.0488L105.055 34.6664L102.398 32.3331L102.379 32.3139L101.991 31.9744L100.45 30.6188V41.5201H95.0477V29.132L93.4478 30.5407L88.6353 34.7659L88.624 34.7772L87.7504 35.5467L83.7063 31.9902L83.6622 31.9484L88.6353 27.5761L89.983 26.3948L90.4537 25.9795L90.7411 25.7339H90.7332C90.7383 25.7284 90.7439 25.7235 90.7502 25.7192V25.7136C91.4347 25.1105 92.1238 24.5074 92.8073 23.9031C93.02 23.7153 93.2305 23.5297 93.4432 23.3441L93.4715 23.3192C93.461 22.5407 93.4515 21.7622 93.4432 20.9837H83.2209V15.5738H93.4432V14.9119H93.4715V0.00835419H98.8588C98.8588 3.73339 98.8626 7.45918 98.8701 11.1857L100.445 9.80409L104.864 5.91953L105.053 6.08246L106.967 7.76508V7.77298L109.062 9.614C107.869 10.6648 106.675 11.7145 105.478 12.7631L98.8554 18.586L98.8475 20.9849H110.89V26.3914L103.786 26.3948Z" fill="#1B249E"/>
<path d="M153.398 44.0486L159.372 29.4517H151.796V26.7044H162.479V29.4506L156.529 44.0475L153.398 44.0486Z" fill="#1B249E"/>
<path d="M165.37 44.0486V26.7044H172.536C172.705 26.7044 172.922 26.7111 173.187 26.7225C173.433 26.7327 173.678 26.7592 173.921 26.8017C174.925 26.9526 175.754 27.2856 176.411 27.8008C177.06 28.3087 177.563 28.9799 177.868 29.7459C178.193 30.5746 178.354 31.4584 178.343 32.3485C178.343 33.7614 177.986 34.9759 177.272 35.9921C176.557 37.0082 175.461 37.6366 173.983 37.8772L172.739 37.9904H168.27V44.0486H165.37ZM168.273 35.2803H172.416C172.576 35.2803 172.756 35.2724 172.958 35.2566C173.145 35.2423 173.331 35.2097 173.512 35.1592C173.947 35.066 174.343 34.8435 174.65 34.5211C174.922 34.2249 175.124 33.871 175.241 33.4857C175.354 33.119 175.412 32.7378 175.415 32.3541C175.412 31.9687 175.353 31.5856 175.241 31.2169C175.125 30.8293 174.923 30.4729 174.65 30.1748C174.343 29.8523 173.947 29.6299 173.512 29.5366C173.331 29.4863 173.146 29.456 172.958 29.4461C172.757 29.4336 172.576 29.428 172.416 29.428H168.273V35.2803ZM175.33 44.0486L171.909 36.9901L174.86 36.3406L178.618 44.0486H175.33Z" fill="#1B249E"/>
<path d="M181.508 29.0659V26.4034H184.412V29.0659H181.508ZM181.508 44.0486V31.0359H184.412V44.0486H181.508Z" fill="#1B249E"/>
<path d="M191.542 44.0486L186.82 31.0359H189.722L192.998 40.4662L196.262 31.0359H199.177L194.455 44.0486H191.542Z" fill="#1B249E"/>
<path d="M206.777 44.4096C205.46 44.4096 204.304 44.1244 203.309 43.5541C202.324 42.996 201.517 42.1726 200.978 41.1779C200.419 40.1663 200.14 39.0023 200.14 37.686C200.14 36.2648 200.413 35.0303 200.959 33.9824C201.472 32.97 202.261 32.1239 203.236 31.5428C204.207 30.965 205.331 30.6761 206.608 30.6761C207.957 30.6761 209.103 30.991 210.047 31.6209C210.991 32.2508 211.691 33.1402 212.148 34.2891C212.606 35.4372 212.779 36.7902 212.666 38.3479H209.788V37.2877C209.78 35.8755 209.531 34.8439 209.041 34.1929C208.551 33.5419 207.78 33.2168 206.728 33.2175C205.54 33.2175 204.657 33.5849 204.079 34.3196C203.501 35.0544 203.212 36.1282 203.211 37.5411C203.211 38.8583 203.5 39.8766 204.079 40.5963C204.658 41.316 205.501 41.6773 206.608 41.6803C207.257 41.6975 207.897 41.5329 208.457 41.2051C208.986 40.8756 209.403 40.3951 209.655 39.8257L212.522 40.6936C212.059 41.8243 211.252 42.7808 210.215 43.4274C209.187 44.0773 207.993 44.4181 206.777 44.4096ZM202.296 38.3513V36.1595H211.245V38.3513H202.296Z" fill="#1B249E"/>
<path d="M215.364 44.0486V31.0359H217.935V34.2042L217.621 33.7946C217.777 33.3696 217.995 32.9697 218.266 32.6076C218.531 32.2542 218.86 31.9541 219.236 31.7228C219.565 31.5018 219.924 31.3295 220.302 31.2113C220.691 31.0879 221.093 31.0119 221.5 30.985C221.898 30.9567 222.298 30.975 222.692 31.0393V33.7493C222.259 33.6315 221.808 33.5932 221.361 33.6362C220.882 33.669 220.417 33.8135 220.003 34.0582C219.619 34.2599 219.284 34.5434 219.021 34.8888C218.765 35.2344 218.575 35.6246 218.461 36.0396C218.338 36.4928 218.277 36.9607 218.281 37.4302V44.043L215.364 44.0486Z" fill="#1B249E"/>
<path d="M225.215 44.0486V26.7044H228.119V41.3261H235.778V44.0486H225.215Z" fill="#1B249E"/>
<path d="M241.463 44.4096C240.524 44.4096 239.729 44.2308 239.078 43.8732C238.462 43.547 237.952 43.0521 237.607 42.4464C237.272 41.8465 237.1 41.1698 237.108 40.4831C237.099 39.9042 237.205 39.3292 237.42 38.7915C237.632 38.2863 237.962 37.8399 238.384 37.4902C238.885 37.0885 239.457 36.7841 240.07 36.5929C240.673 36.4053 241.286 36.2542 241.907 36.1403C242.609 36.003 243.372 35.8763 244.196 35.7601C245.019 35.6439 245.881 35.5176 246.779 35.381L245.742 35.9717C245.75 35.0717 245.549 34.409 245.141 33.9836C244.732 33.5581 244.041 33.3454 243.069 33.3454C242.479 33.3465 241.897 33.4869 241.371 33.755C240.825 34.0273 240.443 34.4969 240.226 35.1638L237.577 34.3332C237.874 33.2685 238.521 32.335 239.414 31.6831C240.319 31.0163 241.537 30.6832 243.069 30.684C244.225 30.684 245.243 30.8726 246.124 31.2498C246.981 31.6071 247.678 32.2671 248.08 33.1044C248.307 33.5418 248.45 34.0176 248.502 34.5075C248.55 34.9865 248.574 35.5066 248.575 36.0679V44.0532H246.033V41.2345L246.454 41.6871C245.868 42.6278 245.184 43.3165 244.402 43.7533C243.619 44.1901 242.64 44.4088 241.463 44.4096ZM242.037 42.0933C242.618 42.1101 243.195 41.9907 243.723 41.7448C244.15 41.5414 244.529 41.2499 244.836 40.8894C245.08 40.6096 245.27 40.2869 245.396 39.9377C245.556 39.5326 245.644 39.1025 245.655 38.667C245.676 38.1895 245.686 37.8021 245.686 37.5049L246.576 37.7697C245.702 37.907 244.952 38.0273 244.325 38.1307C243.698 38.234 243.16 38.3325 242.711 38.426C242.308 38.5062 241.91 38.6089 241.518 38.7338C241.216 38.8364 240.929 38.9779 240.663 39.1547C240.446 39.2984 240.264 39.4876 240.128 39.7092C240 39.9323 239.935 40.1863 239.941 40.4435C239.935 40.7445 240.019 41.0405 240.182 41.2933C240.357 41.5504 240.601 41.7528 240.886 41.8772C241.249 42.0318 241.642 42.1056 242.037 42.0933Z" fill="#1B249E"/>
<path d="M251.676 44.0486V26.7044H254.602V34.9194H254.241V44.0486H251.676ZM257.951 44.4096C256.683 44.4096 255.619 44.1078 254.759 43.5044C253.888 42.8877 253.215 42.0321 252.82 41.041C252.373 39.9295 252.152 38.7402 252.17 37.5423C252.17 36.2327 252.386 35.0604 252.82 34.0254C253.211 33.044 253.873 32.1939 254.729 31.5745C255.567 30.9763 256.605 30.6772 257.842 30.6772C259.079 30.6772 260.145 30.9763 261.04 31.5745C261.951 32.182 262.678 33.0278 263.142 34.0198C263.639 35.0517 263.887 36.2259 263.888 37.5423C263.888 38.842 263.643 40.0113 263.154 41.0501C262.7 42.0432 261.984 42.8932 261.082 43.5078C260.191 44.109 259.147 44.4096 257.951 44.4096ZM257.505 41.807C258.259 41.807 258.882 41.6185 259.372 41.2413C259.875 40.8449 260.254 40.3118 260.462 39.7058C260.706 39.0115 260.826 38.2795 260.817 37.5434C260.826 36.8109 260.704 36.0827 260.456 35.3935C260.24 34.7819 259.851 34.2463 259.336 33.8523C258.829 33.4713 258.188 33.2805 257.412 33.2798C256.673 33.2798 256.069 33.4585 255.602 33.8161C255.117 34.2001 254.759 34.7197 254.572 35.3086C254.131 36.7635 254.131 38.3165 254.572 39.7714C254.76 40.3664 255.126 40.8897 255.62 41.2707C256.099 41.629 256.727 41.8082 257.505 41.8082V41.807Z" fill="#1B249E"/>
<path d="M271.259 44.4096C269.653 44.4096 268.349 44.0482 267.345 43.3256C266.341 42.6029 265.73 41.5887 265.514 40.2829L268.477 39.8302C268.612 40.4452 268.973 40.987 269.489 41.3476C270.011 41.7165 270.669 41.901 271.464 41.901C272.163 41.901 272.703 41.7625 273.084 41.4857C273.267 41.3589 273.415 41.1883 273.515 40.9894C273.615 40.7906 273.664 40.5698 273.656 40.3474C273.669 40.0916 273.594 39.8392 273.445 39.6311C273.305 39.45 272.998 39.2754 272.524 39.1072C272.05 38.939 271.324 38.7262 270.344 38.469C269.251 38.1793 268.384 37.8681 267.742 37.5355C267.1 37.2028 266.638 36.8075 266.357 36.3496C266.064 35.8456 265.918 35.2699 265.936 34.6874C265.919 33.9309 266.143 33.1886 266.574 32.5669C267.025 31.9445 267.643 31.4623 268.356 31.1762C269.119 30.8518 270.019 30.6893 271.055 30.6885C271.974 30.6717 272.887 30.8311 273.746 31.1581C274.48 31.4374 275.133 31.8969 275.643 32.4944C276.127 33.0757 276.435 33.7818 276.534 34.5312L273.572 35.0619C273.544 34.8028 273.463 34.5522 273.334 34.3262C273.204 34.1002 273.029 33.9037 272.819 33.7493C272.389 33.428 271.817 33.2473 271.103 33.2073C270.424 33.1666 269.874 33.2688 269.453 33.514C269.032 33.7591 268.823 34.1024 268.826 34.5437C268.824 34.6615 268.845 34.7786 268.889 34.8881C268.932 34.9977 268.997 35.0975 269.079 35.1819C269.248 35.3584 269.587 35.5349 270.098 35.7114C270.609 35.888 271.369 36.1048 272.38 36.3621C273.417 36.6269 274.246 36.9286 274.87 37.2673C275.493 37.606 275.942 38.0133 276.218 38.4893C276.509 39.0158 276.653 39.6106 276.635 40.2116C276.635 41.5204 276.159 42.5482 275.207 43.295C274.255 44.0418 272.939 44.4134 271.259 44.4096Z" fill="#1B249E"/>
<path d="M151.908 62.2993V51.1728H153.051V56.017H152.928V62.2993H151.908ZM155.663 62.5256C154.896 62.5256 154.246 62.3309 153.715 61.9417C153.173 61.5374 152.755 60.9883 152.51 60.3575C151.961 58.9062 151.961 57.3042 152.51 55.8529C152.758 55.2263 153.18 54.6837 153.727 54.2891C154.261 53.9081 154.921 53.7173 155.705 53.7165C156.404 53.6977 157.091 53.9005 157.668 54.2959C158.224 54.6954 158.658 55.2409 158.923 55.8721C159.507 57.3117 159.507 58.9225 158.923 60.3621C158.655 60.997 158.216 61.5452 157.655 61.9462C157.106 62.3362 156.442 62.5312 155.663 62.5312V62.5256ZM155.55 61.4664C156.069 61.4856 156.58 61.3307 157.001 61.0263C157.4 60.7169 157.702 60.2999 157.871 59.8246C158.255 58.7198 158.255 57.5178 157.871 56.413C157.703 55.9386 157.401 55.5228 157.002 55.2158C156.613 54.9224 156.12 54.7757 155.522 54.7757C154.941 54.7757 154.458 54.9171 154.074 55.2C153.678 55.5004 153.379 55.9103 153.213 56.379C152.831 57.5013 152.831 58.7182 153.213 59.8404C153.379 60.314 153.679 60.7289 154.077 61.0342C154.465 61.3261 154.955 61.4721 155.547 61.4721L155.55 61.4664Z" fill="#1B249E"/>
<path d="M161.844 66.0073L163.459 61.6271L163.483 62.925L159.828 53.9542H161.033L164.03 61.4563H163.536L166.303 53.9542H167.461L162.98 66.0073H161.844Z" fill="#1B249E"/>
<path d="M175.181 62.5312C174.627 62.5363 174.08 62.4148 173.581 62.1759C173.097 61.943 172.67 61.6079 172.329 61.1938C171.982 60.7733 171.729 60.2832 171.587 59.7567L172.677 59.4636C172.766 59.8484 172.949 60.2051 173.21 60.5024C173.46 60.7897 173.769 61.0211 174.115 61.1813C174.457 61.3396 174.83 61.4211 175.208 61.4201C175.677 61.4274 176.139 61.3031 176.541 61.0613C176.929 60.8276 177.252 60.4995 177.479 60.1075C177.711 59.7116 177.831 59.2604 177.827 58.8017C177.833 58.3343 177.707 57.8747 177.464 57.4755C177.228 57.0876 176.899 56.7651 176.506 56.5374C176.112 56.3065 175.664 56.1865 175.208 56.1901C174.733 56.1771 174.263 56.2945 173.85 56.5295C173.485 56.7444 173.173 57.0391 172.938 57.3918L171.903 56.9584L172.242 51.1717H178.184V52.2614H172.744L173.31 51.7284L173.009 56.6653L172.723 56.2862C173.047 55.9191 173.445 55.6252 173.892 55.424C174.338 55.2229 174.822 55.1191 175.312 55.1196C175.963 55.1111 176.605 55.2809 177.167 55.6107C177.72 55.9366 178.179 56.403 178.494 56.9627C178.81 57.5224 178.973 58.1556 178.966 58.7983C178.972 59.4564 178.793 60.1031 178.449 60.6642C178.109 61.2234 177.637 61.6899 177.074 62.0221C176.501 62.3616 175.846 62.5377 175.181 62.5312Z" fill="#1B249E"/>
<path d="M185.719 62.2993V60.1437H180.514V59.0665L184.238 51.1773H185.513L181.787 59.0665H185.719V55.8212H186.863V59.0665H188.076V60.1482H186.863V62.3038L185.719 62.2993Z" fill="#1B249E"/>
<path d="M193.168 62.5312C192.391 62.5312 191.726 62.3366 191.174 61.9474C190.613 61.5464 190.175 60.9981 189.907 60.3632C189.322 58.9236 189.322 57.3128 189.907 55.8732C190.171 55.2418 190.606 54.6961 191.163 54.297C191.739 53.9015 192.426 53.6987 193.125 53.7177C193.908 53.7177 194.567 53.9085 195.103 54.2902C195.649 54.685 196.071 55.2275 196.32 55.854C196.868 57.3055 196.868 58.9072 196.32 60.3587C196.075 60.9895 195.658 61.5385 195.115 61.9428C194.585 62.3351 193.936 62.5312 193.168 62.5312ZM193.245 66.2393C192.817 66.2391 192.391 66.1754 191.982 66.0503C191.566 65.9236 191.177 65.7219 190.834 65.4551C190.47 65.1688 190.17 64.8096 189.953 64.4005L190.981 63.8348C191.184 64.2693 191.528 64.6221 191.958 64.8351C192.358 65.034 192.798 65.1385 193.245 65.1406C193.848 65.1406 194.336 65.0274 194.709 64.8011C195.086 64.5723 195.374 64.2219 195.525 63.8076C195.709 63.2821 195.792 62.7267 195.771 62.1703V59.9445H195.903V53.9564H196.915V62.185C196.915 62.4226 196.908 62.6501 196.896 62.8696C196.883 63.0857 196.859 63.301 196.822 63.5146C196.752 64.0697 196.543 64.5984 196.216 65.0523C195.905 65.4571 195.488 65.7674 195.011 65.9485C194.445 66.1549 193.846 66.2536 193.245 66.2393ZM193.283 61.4721C193.876 61.4721 194.366 61.328 194.754 61.0399C195.152 60.7343 195.453 60.3195 195.62 59.8461C196 58.7236 196 57.5072 195.62 56.3847C195.453 55.9161 195.154 55.5063 194.757 55.2056C194.374 54.9227 193.891 54.7813 193.309 54.7813C192.712 54.7813 192.217 54.928 191.826 55.2215C191.425 55.5272 191.123 55.9434 190.957 56.4187C190.577 57.5246 190.58 58.7258 190.963 59.8302C191.133 60.3056 191.435 60.7226 191.834 61.032C192.254 61.3359 192.764 61.4908 193.283 61.4721Z" fill="#1B249E"/>
<path d="M202.609 62.5313C201.869 62.55 201.137 62.3627 200.497 61.9904C199.898 61.6261 199.416 61.0974 199.109 60.4673C198.779 59.8133 198.614 59.0461 198.615 58.1658C198.615 57.2537 198.777 56.4654 199.101 55.8008C199.4 55.1662 199.876 54.632 200.473 54.2631C201.105 53.8914 201.829 53.7041 202.563 53.7222C203.387 53.7222 204.09 53.9108 204.672 54.288C205.268 54.683 205.729 55.2507 205.994 55.9151C206.295 56.6204 206.432 57.4627 206.403 58.4419H205.245V58.039C205.223 56.9573 204.99 56.1411 204.545 55.5904C204.101 55.0397 203.45 54.764 202.593 54.7632C201.697 54.7632 201.011 55.0544 200.535 55.6368C200.059 56.2191 199.821 57.0489 199.82 58.1261C199.82 59.1762 200.058 59.9913 200.535 60.5714C201.012 61.1515 201.688 61.4412 202.563 61.4404C203.113 61.4529 203.655 61.3098 204.128 61.0274C204.585 60.7375 204.951 60.3235 205.182 59.8337L206.24 60.2433C205.936 60.9399 205.429 61.5284 204.784 61.9315C204.131 62.3342 203.376 62.5422 202.609 62.5313ZM199.418 58.4441V57.4936H205.792V58.4441H199.418Z" fill="#1B249E"/>
<path d="M207.871 62.2993V53.9542H208.898V56.0113H209.012V62.3004L207.871 62.2993ZM213.905 62.2993V58.0413C213.909 57.6115 213.865 57.1827 213.774 56.7626C213.697 56.4003 213.554 56.0552 213.353 55.7442C213.166 55.4572 212.907 55.2233 212.603 55.0653C212.256 54.8959 211.873 54.8136 211.487 54.8254C211.122 54.8179 210.76 54.8889 210.425 55.0337C210.123 55.1691 209.858 55.3742 209.652 55.6322C209.433 55.9136 209.271 56.2355 209.177 56.5793C209.063 56.992 209.008 57.4187 209.015 57.8466L208.211 57.669C208.211 56.8135 208.362 56.095 208.664 55.5134C208.936 54.9599 209.366 54.4998 209.9 54.1918C210.453 53.8841 211.077 53.7279 211.71 53.7391C212.158 53.7294 212.603 53.8083 213.019 53.9711C213.375 54.1137 213.698 54.3265 213.97 54.5969C214.23 54.8603 214.443 55.1665 214.6 55.5021C214.761 55.844 214.877 56.2048 214.948 56.5759C215.021 56.9487 215.059 57.3276 215.061 57.7075V62.297L213.905 62.2993Z" fill="#1B249E"/>
<path d="M220.537 62.5313C219.796 62.5498 219.065 62.3626 218.424 61.9904C217.825 61.6261 217.344 61.0974 217.037 60.4673C216.707 59.8133 216.542 59.0461 216.543 58.1658C216.543 57.2537 216.705 56.4654 217.03 55.8008C217.328 55.1659 217.804 54.6315 218.401 54.2631C219.034 53.8914 219.758 53.7041 220.491 53.7222C221.315 53.7222 222.018 53.9108 222.6 54.288C223.196 54.6834 223.657 55.251 223.922 55.9151C224.224 56.6204 224.36 57.4627 224.331 58.4419H223.172V58.039C223.151 56.9573 222.918 56.1411 222.472 55.5904C222.026 55.0397 221.376 54.764 220.522 54.7632C219.625 54.7632 218.939 55.0544 218.462 55.6368C217.985 56.2191 217.747 57.0489 217.748 58.1261C217.748 59.1762 217.986 59.9913 218.462 60.5714C218.938 61.1515 219.614 61.4412 220.491 61.4404C221.041 61.4529 221.584 61.3098 222.056 61.0274C222.513 60.7372 222.879 60.3233 223.111 59.8337L224.168 60.2433C223.864 60.9399 223.357 61.5284 222.712 61.9315C222.059 62.3339 221.305 62.5419 220.537 62.5313ZM217.346 58.4441V57.4936H223.72V58.4441H217.346Z" fill="#1B249E"/>
<path d="M131.969 0.0712738H131.856V79.9853H131.969V0.0712738Z" fill="#1B249E"/>
</g>
<defs>
<clipPath id="clip0_101:18037">
<rect width="276.662" height="80" fill="white"/>
</clipPath>
</defs>
</svg>
