<svg width="26" height="26" viewBox="0 0 26 26" fill="none" xmlns="http://www.w3.org/2000/svg">
<path fill-rule="evenodd" clip-rule="evenodd" d="M18.0502 8.56888L17.6503 8.4387L17.5201 8.03886C17.2365 7.16014 17.1343 6.26283 17.19 5.37947L19.0637 7.25313C19.152 7.34147 19.2729 7.38796 19.3892 7.38796C19.5054 7.38796 19.6263 7.34147 19.7146 7.24848C19.8959 7.06716 19.8959 6.7696 19.7146 6.58828L17.3435 4.21714C17.4644 3.69177 17.6457 3.18035 17.8828 2.69683L23.3504 8.16439C21.7185 8.96407 19.8215 9.12215 18.0269 8.54563L18.0502 8.56888ZM16.4833 15.5707C16.4741 15.5568 16.4694 15.5475 16.4601 15.5335L10.5183 9.59637C11.848 8.48984 13.638 8.12255 15.3071 8.66187L16.8971 9.17329L17.4086 10.7633C17.6131 11.4049 17.6829 12.0698 17.6317 12.7207L14.9537 10.0427C14.7724 9.86138 14.4749 9.86138 14.2935 10.0427C14.1122 10.224 14.1122 10.5169 14.2935 10.6983L17.4086 13.8133C17.2086 14.4409 16.8925 15.0323 16.4601 15.5521L16.4833 15.5707ZM11.0297 17.1608L9.43503 16.6447L8.91895 15.05C8.70044 14.3758 8.6307 13.6877 8.69579 13.0136L11.4435 15.7613C11.5319 15.8497 11.6527 15.8962 11.769 15.8962C11.8852 15.8962 12.0061 15.8497 12.0944 15.7567C12.2757 15.5707 12.2757 15.2778 12.0944 15.0965L8.9143 11.9164C9.10957 11.3073 9.42108 10.7354 9.84416 10.2333L15.7813 16.1705C15.7906 16.1798 15.8046 16.1844 15.8139 16.1891C14.4795 17.3002 12.6849 17.6722 11.0065 17.1329L11.0297 17.1608ZM8.82132 17.7838C9.23511 19.0809 9.27137 20.4292 8.9515 21.6985L6.12938 18.8764C5.94806 18.6904 5.6505 18.6904 5.46918 18.8764C5.28786 19.0577 5.28786 19.3506 5.46918 19.5319L8.61675 22.6795C8.42148 23.1491 8.17507 23.6 7.87751 24.0231C7.85892 23.9999 7.84962 23.9766 7.83102 23.9534L2.03802 18.1604C3.84194 16.9051 6.12938 16.5471 8.2727 17.2352L8.66789 17.3607L8.79342 17.7559L8.82132 17.7838ZM25.9256 6.8161C25.7396 6.63013 25.4467 6.63013 25.2654 6.8161C24.926 7.15085 24.5634 7.44375 24.1821 7.69946C24.1682 7.68087 24.1635 7.66227 24.1496 7.64832L18.3705 1.86925C18.6216 1.48801 18.9145 1.12862 19.2492 0.796196C19.4305 0.614873 19.4305 0.317314 19.2492 0.135992C19.0632 -0.0453306 18.7703 -0.0453306 18.589 0.135992C16.4982 2.22678 15.7297 5.24557 16.548 8.07234L15.5763 7.76083C13.419 7.06344 11.0851 7.626 9.4857 9.23001C7.8817 10.8294 7.31913 13.1633 8.01188 15.3159L8.32338 16.283C5.49661 15.4647 2.47459 16.2318 0.382404 18.3194L0.135992 18.5611C-0.0453306 18.7425 -0.0453306 19.0354 0.135992 19.2167C0.224328 19.305 0.34521 19.3515 0.461442 19.3515C0.577674 19.3515 0.698556 19.305 0.786893 19.212L1.02866 18.9656C1.11234 18.8819 1.19603 18.8029 1.28437 18.7239L7.14711 24.5866C7.18895 24.6285 7.24009 24.6657 7.29589 24.6843C7.20755 24.7772 7.12154 24.8749 7.02623 24.9679L6.77981 25.2096C6.59849 25.3909 6.59849 25.6838 6.77981 25.8652C6.86815 25.9535 6.98903 26 7.10527 26C7.2215 26 7.34238 25.9535 7.43072 25.8605L7.67248 25.6141C9.76001 23.5219 10.5271 20.5027 9.70887 17.6731L10.6759 17.9846C12.8285 18.6774 15.1625 18.1102 16.7618 16.5108C18.3612 14.9068 18.9238 12.5728 18.231 10.4202L17.9149 9.44853C20.7416 10.2668 23.759 9.49502 25.8526 7.40749C26.0339 7.22616 26.0339 6.92861 25.8526 6.74729L25.9256 6.8161Z" fill="#1B249E"/>
</svg>
