<svg width="66" height="60" viewBox="0 0 66 60" fill="none" xmlns="http://www.w3.org/2000/svg">
<path d="M62.44 0.17627H3.56001C1.93621 0.17627 0.616272 1.49673 0.616272 3.12001V43.6C0.616272 45.2238 1.93674 46.5437 3.56001 46.5437H24.536V50.96C24.536 51.7481 24.1376 53.0629 23.7007 53.7184L22.0614 56.1765C21.5609 56.9271 21.4746 57.7337 21.8268 58.3914C22.1779 59.048 22.8967 59.4238 23.7998 59.4238H42.1998C43.1028 59.4238 43.8211 59.047 44.1728 58.3914C44.5245 57.7342 44.4387 56.9276 43.9382 56.1765L42.2989 53.7184C41.8615 53.0628 41.4636 51.748 41.4636 50.96V46.5437H62.4396C64.0634 46.5437 65.3833 45.2233 65.3833 43.6V3.12001C65.3833 1.49621 64.0634 0.17627 62.4396 0.17627H62.44ZM3.56001 2.38388H62.44C62.8461 2.38388 63.1762 2.7145 63.1762 3.12009V36.9761H2.82422V3.12009C2.82422 2.71451 3.15484 2.38388 3.56043 2.38388H3.56001ZM40.4625 54.9435L41.978 57.2163H24.0236L25.5391 54.9435C26.2265 53.9131 26.7456 52.1999 26.7456 50.96V46.5437H39.2574V50.96C39.2569 52.2004 39.7749 53.9131 40.4629 54.9435H40.4625ZM62.44 44.3363H3.56001C3.15443 44.3363 2.8238 44.0067 2.8238 43.6001V39.1838H63.1758V43.6001C63.1763 44.0061 62.8462 44.3363 62.4401 44.3363H62.44Z" fill="white"/>
<path d="M34.84 41.76C34.84 42.7761 34.016 43.6 33 43.6C31.984 43.6 31.16 42.7761 31.16 41.76C31.16 40.744 31.984 39.92 33 39.92C34.016 39.92 34.84 40.744 34.84 41.76Z" fill="white"/>
<path d="M39.44 32.744C40.0494 32.744 40.5438 32.2496 40.5438 31.6402V7.72024C40.5438 7.11034 40.0494 6.61646 39.44 6.61646C38.8306 6.61646 38.3362 7.11034 38.3362 7.72024V31.6402C38.3362 32.2496 38.8306 32.744 39.44 32.744Z" fill="white"/>
<path d="M44.96 8.82403H52.32C52.9294 8.82403 53.4238 8.33015 53.4238 7.72024C53.4238 7.11034 52.9294 6.61646 52.32 6.61646H44.96C44.3506 6.61646 43.8562 7.11034 43.8562 7.72024C43.8562 8.33015 44.3506 8.82403 44.96 8.82403Z" fill="white"/>
<path d="M44.96 12.504H48.64C49.2494 12.504 49.7438 12.0101 49.7438 11.4002C49.7438 10.7903 49.2494 10.2964 48.64 10.2964H44.96C44.3506 10.2964 43.8562 10.7903 43.8562 11.4002C43.8562 12.0101 44.3506 12.504 44.96 12.504Z" fill="white"/>
<path d="M44.96 18.024H52.32C52.9294 18.024 53.4238 17.5301 53.4238 16.9202C53.4238 16.3103 52.9294 15.8164 52.32 15.8164H44.96C44.3506 15.8164 43.8562 16.3103 43.8562 16.9202C43.8562 17.5301 44.3506 18.024 44.96 18.024Z" fill="white"/>
<path d="M44.96 21.704H48.64C49.2494 21.704 49.7438 21.2102 49.7438 20.6003C49.7438 19.9903 49.2494 19.4965 48.64 19.4965H44.96C44.3506 19.4965 43.8562 19.9903 43.8562 20.6003C43.8562 21.2102 44.3506 21.704 44.96 21.704Z" fill="white"/>
<path d="M44.96 27.2241H52.32C52.9294 27.2241 53.4238 26.7302 53.4238 26.1203C53.4238 25.5104 52.9294 25.0165 52.32 25.0165H44.96C44.3506 25.0165 43.8562 25.5104 43.8562 26.1203C43.8562 26.7302 44.3506 27.2241 44.96 27.2241Z" fill="white"/>
<path d="M44.96 30.904H48.64C49.2494 30.904 49.7438 30.4101 49.7438 29.8002C49.7438 29.1903 49.2494 28.6964 48.64 28.6964H44.96C44.3506 28.6964 43.8562 29.1903 43.8562 29.8002C43.8562 30.4101 44.3506 30.904 44.96 30.904Z" fill="white"/>
<path d="M13.68 8.82403H32.08C32.6899 8.82403 33.1838 8.33015 33.1838 7.72024C33.1838 7.11034 32.6899 6.61646 32.08 6.61646H13.68C13.0701 6.61646 12.5762 7.11034 12.5762 7.72024C12.5762 8.33015 13.0701 8.82403 13.68 8.82403Z" fill="white"/>
<path d="M13.68 12.504H30.24C30.8499 12.504 31.3438 12.0101 31.3438 11.4002C31.3438 10.7903 30.8499 10.2964 30.24 10.2964H13.68C13.0701 10.2964 12.5762 10.7903 12.5762 11.4002C12.5762 12.0101 13.0701 12.504 13.68 12.504Z" fill="white"/>
<path d="M13.68 18.024H32.08C32.6899 18.024 33.1838 17.5301 33.1838 16.9202C33.1838 16.3103 32.6899 15.8164 32.08 15.8164H13.68C13.0701 15.8164 12.5762 16.3103 12.5762 16.9202C12.5762 17.5301 13.0701 18.024 13.68 18.024Z" fill="white"/>
<path d="M13.68 21.704H22.88C23.4899 21.704 23.9838 21.2102 23.9838 20.6003C23.9838 19.9903 23.4899 19.4965 22.88 19.4965H13.68C13.0701 19.4965 12.5762 19.9903 12.5762 20.6003C12.5762 21.2102 13.0701 21.704 13.68 21.704Z" fill="white"/>
<path d="M13.68 27.2241H32.08C32.6899 27.2241 33.1838 26.7302 33.1838 26.1203C33.1838 25.5104 32.6899 25.0165 32.08 25.0165H13.68C13.0701 25.0165 12.5762 25.5104 12.5762 26.1203C12.5762 26.7302 13.0701 27.2241 13.68 27.2241Z" fill="white"/>
<path d="M13.68 30.904H22.88C23.4899 30.904 23.9838 30.4101 23.9838 29.8002C23.9838 29.1903 23.4899 28.6964 22.88 28.6964H13.68C13.0701 28.6964 12.5762 29.1903 12.5762 29.8002C12.5762 30.4101 13.0701 30.904 13.68 30.904Z" fill="white"/>
<path d="M5.40002 10.664H8.26989C7.87663 11.0968 7.88126 11.7627 8.29916 12.1811C8.51478 12.3967 8.79767 12.504 9.08003 12.504C9.3629 12.504 9.64528 12.3967 9.8609 12.1811L11.6993 10.3427C11.8025 10.2395 11.8841 10.1168 11.9406 9.97972C11.9427 9.97459 11.9437 9.96842 11.9457 9.96329C11.995 9.83802 12.0238 9.703 12.0238 9.55977C12.0238 9.41705 11.9945 9.28253 11.9457 9.15624C11.9437 9.15111 11.9427 9.14495 11.9406 9.13981C11.8841 9.00273 11.802 8.88003 11.6993 8.77685L9.8609 6.93842C9.42966 6.50718 8.73091 6.50718 8.29966 6.93842C7.88175 7.35581 7.87714 8.02168 8.27039 8.4555L5.39999 8.45653C4.79009 8.45653 4.2962 8.95041 4.2962 9.56032C4.2962 10.1702 4.79009 10.6641 5.39999 10.6641L5.40002 10.664Z" fill="white"/>
</svg>
