<svg width="143" height="143" viewBox="0 0 143 143" fill="none" xmlns="http://www.w3.org/2000/svg">
<path d="M131.764 47.1368L126.731 35.4678C124.9 31.2352 120.782 28.4894 116.092 28.4894H107.969V25.5152C107.969 23.1124 106.024 21.0536 103.507 21.0536H46.765C45.0493 21.0536 43.7908 22.4262 43.7908 24.0278C43.7908 25.6294 45.1633 27.002 46.765 27.002H101.791V48.9668C101.791 51.7126 103.965 53.8856 106.71 53.8856H126.501V67.7284C126.501 68.3006 126.044 68.7578 125.472 68.7578L121.811 68.7586C119.867 65.4414 116.32 63.2676 112.316 63.2676C108.312 63.2676 104.766 65.5554 102.821 68.7586H72.2762C70.3315 65.4414 66.7852 63.2676 62.781 63.2676C58.7766 63.2676 55.2304 65.5554 53.2858 68.7586H42.761C41.0453 68.7586 39.7868 70.1312 39.7868 71.7328C39.7868 73.4485 41.1593 74.707 42.761 74.707H51.7982C52.0272 80.5412 56.832 85.2318 62.781 85.2318C68.73 85.2318 73.5348 80.5412 73.7638 74.707H101.334C101.563 80.5412 106.368 85.2318 112.317 85.2318C118.266 85.2318 123.071 80.5412 123.3 74.707H125.703C129.592 74.707 132.681 71.5038 132.681 67.7286V51.713C132.679 50.2264 132.336 48.6248 131.764 47.1374L131.764 47.1368ZM62.7812 79.2832C60.0354 79.2832 57.7474 76.9954 57.7474 74.2494C57.7474 71.5036 60.0352 69.2156 62.7812 69.2156C65.5272 69.2156 67.815 71.5034 67.815 74.2494C67.815 76.9952 65.5272 79.2832 62.7812 79.2832ZM112.316 79.2832C109.571 79.2832 107.283 76.9954 107.283 74.2494C107.283 71.5036 109.57 69.2156 112.316 69.2156C115.062 69.2156 117.35 71.5034 117.35 74.2494C117.35 76.9952 115.062 79.2832 112.316 79.2832ZM107.855 34.5528H115.978C118.151 34.5528 120.21 35.8112 121.011 37.87L125.359 47.9374H107.855V34.5528Z" fill="black" fill-opacity="0.2"/>
<path d="M38.1852 39.472H59.2348C60.9505 39.472 62.209 38.0994 62.209 36.4978C62.209 34.7821 60.8364 33.5236 59.2348 33.5236L38.1852 33.5228C36.4695 33.5228 35.211 34.8954 35.211 36.497C35.2102 38.0986 36.5836 39.4718 38.1852 39.4718V39.472Z" fill="black" fill-opacity="0.2"/>
<path d="M32.5796 50.912H53.6292C55.3449 50.912 56.6034 49.5394 56.6034 47.9378C56.6034 46.2221 55.2308 44.9636 53.6292 44.9636L32.5796 44.9628C30.8639 44.9628 29.6054 46.3354 29.6054 47.937C29.6054 49.5386 30.978 50.9118 32.5796 50.9118V50.912Z" fill="black" fill-opacity="0.2"/>
<path d="M51.1124 59.3776C51.1124 57.6619 49.7398 56.4034 48.1382 56.4034H26.9742C25.2585 56.4034 24 57.776 24 59.3776C24 61.0933 25.3726 62.3518 26.9742 62.3518H48.0238C49.7403 62.4667 51.1128 61.0942 51.1128 59.3776H51.1124Z" fill="black" fill-opacity="0.2"/>
<path d="M46.6296 119.15C45.9096 119.15 45.2879 118.993 44.7646 118.68C44.2446 118.367 43.8429 117.928 43.5596 117.365C43.2796 116.802 43.1396 116.147 43.1396 115.4C43.1396 114.653 43.2796 113.998 43.5596 113.435C43.8429 112.872 44.2446 112.433 44.7646 112.12C45.2879 111.807 45.9096 111.65 46.6296 111.65C47.3496 111.65 47.9696 111.807 48.4896 112.12C49.0129 112.433 49.4146 112.872 49.6946 113.435C49.9779 113.998 50.1196 114.653 50.1196 115.4C50.1196 116.147 49.9779 116.802 49.6946 117.365C49.4146 117.928 49.0129 118.367 48.4896 118.68C47.9696 118.993 47.3496 119.15 46.6296 119.15ZM46.6296 117.87C47.0863 117.877 47.4663 117.778 47.7696 117.575C48.0729 117.372 48.2996 117.083 48.4496 116.71C48.6029 116.337 48.6796 115.9 48.6796 115.4C48.6796 114.9 48.6029 114.467 48.4496 114.1C48.2996 113.733 48.0729 113.448 47.7696 113.245C47.4663 113.042 47.0863 112.937 46.6296 112.93C46.1729 112.923 45.7929 113.022 45.4896 113.225C45.1863 113.428 44.9579 113.717 44.8046 114.09C44.6546 114.463 44.5796 114.9 44.5796 115.4C44.5796 115.9 44.6546 116.333 44.8046 116.7C44.9579 117.067 45.1863 117.352 45.4896 117.555C45.7929 117.758 46.1729 117.863 46.6296 117.87ZM50.8177 119V111.8H53.8577C53.9277 111.8 54.0211 111.803 54.1377 111.81C54.2577 111.813 54.3644 111.823 54.4577 111.84C54.8877 111.907 55.2394 112.048 55.5127 112.265C55.7894 112.482 55.9927 112.755 56.1227 113.085C56.2527 113.412 56.3177 113.777 56.3177 114.18C56.3177 114.783 56.1677 115.3 55.8677 115.73C55.5677 116.157 55.0977 116.42 54.4577 116.52L53.8577 116.56H52.1777V119H50.8177ZM54.8777 119L53.4577 116.07L54.8577 115.8L56.4177 119H54.8777ZM52.1777 115.29H53.7977C53.8677 115.29 53.9444 115.287 54.0277 115.28C54.1111 115.273 54.1877 115.26 54.2577 115.24C54.4411 115.19 54.5827 115.107 54.6827 114.99C54.7827 114.87 54.8511 114.738 54.8877 114.595C54.9277 114.448 54.9477 114.31 54.9477 114.18C54.9477 114.05 54.9277 113.913 54.8877 113.77C54.8511 113.623 54.7827 113.492 54.6827 113.375C54.5827 113.255 54.4411 113.17 54.2577 113.12C54.1877 113.1 54.1111 113.087 54.0277 113.08C53.9444 113.073 53.8677 113.07 53.7977 113.07H52.1777V115.29ZM57.2169 119V111.8H59.5469C59.6036 111.8 59.7203 111.802 59.8969 111.805C60.0736 111.808 60.2436 111.82 60.4069 111.84C60.9869 111.91 61.4786 112.112 61.8819 112.445C62.2853 112.778 62.5919 113.202 62.8019 113.715C63.0119 114.228 63.1169 114.79 63.1169 115.4C63.1169 116.01 63.0119 116.572 62.8019 117.085C62.5919 117.598 62.2853 118.022 61.8819 118.355C61.4786 118.688 60.9869 118.89 60.4069 118.96C60.2436 118.98 60.0736 118.992 59.8969 118.995C59.7203 118.998 59.6036 119 59.5469 119H57.2169ZM58.5969 117.72H59.5469C59.6369 117.72 59.7586 117.718 59.9119 117.715C60.0653 117.708 60.2036 117.693 60.3269 117.67C60.6403 117.607 60.8953 117.46 61.0919 117.23C61.2919 117 61.4386 116.723 61.5319 116.4C61.6286 116.077 61.6769 115.743 61.6769 115.4C61.6769 115.04 61.6269 114.698 61.5269 114.375C61.4303 114.052 61.2819 113.778 61.0819 113.555C60.8819 113.332 60.6303 113.19 60.3269 113.13C60.2036 113.103 60.0653 113.088 59.9119 113.085C59.7586 113.082 59.6369 113.08 59.5469 113.08H58.5969V117.72ZM64.0166 119V111.8H68.7166V113.07H65.3766V114.61H68.1166V115.88H65.3766V117.73H68.7166V119H64.0166ZM69.615 119V111.8H72.655C72.725 111.8 72.8183 111.803 72.935 111.81C73.055 111.813 73.1617 111.823 73.255 111.84C73.685 111.907 74.0367 112.048 74.31 112.265C74.5867 112.482 74.79 112.755 74.92 113.085C75.05 113.412 75.115 113.777 75.115 114.18C75.115 114.783 74.965 115.3 74.665 115.73C74.365 116.157 73.895 116.42 73.255 116.52L72.655 116.56H70.975V119H69.615ZM73.675 119L72.255 116.07L73.655 115.8L75.215 119H73.675ZM70.975 115.29H72.595C72.665 115.29 72.7417 115.287 72.825 115.28C72.9083 115.273 72.985 115.26 73.055 115.24C73.2383 115.19 73.38 115.107 73.48 114.99C73.58 114.87 73.6483 114.738 73.685 114.595C73.725 114.448 73.745 114.31 73.745 114.18C73.745 114.05 73.725 113.913 73.685 113.77C73.6483 113.623 73.58 113.492 73.48 113.375C73.38 113.255 73.2383 113.17 73.055 113.12C72.985 113.1 72.9083 113.087 72.825 113.08C72.7417 113.073 72.665 113.07 72.595 113.07H70.975V115.29ZM80.4362 119.15C79.9028 119.15 79.4212 119.057 78.9912 118.87C78.5645 118.68 78.2128 118.41 77.9362 118.06C77.6628 117.707 77.4895 117.287 77.4162 116.8L78.8362 116.59C78.9362 117.003 79.1428 117.322 79.4562 117.545C79.7695 117.768 80.1262 117.88 80.5262 117.88C80.7495 117.88 80.9662 117.845 81.1762 117.775C81.3862 117.705 81.5578 117.602 81.6912 117.465C81.8278 117.328 81.8962 117.16 81.8962 116.96C81.8962 116.887 81.8845 116.817 81.8612 116.75C81.8412 116.68 81.8062 116.615 81.7562 116.555C81.7062 116.495 81.6345 116.438 81.5412 116.385C81.4512 116.332 81.3362 116.283 81.1962 116.24L79.3262 115.69C79.1862 115.65 79.0228 115.593 78.8362 115.52C78.6528 115.447 78.4745 115.342 78.3012 115.205C78.1278 115.068 77.9828 114.888 77.8662 114.665C77.7528 114.438 77.6962 114.153 77.6962 113.81C77.6962 113.327 77.8178 112.925 78.0612 112.605C78.3045 112.285 78.6295 112.047 79.0362 111.89C79.4428 111.733 79.8928 111.657 80.3862 111.66C80.8828 111.667 81.3262 111.752 81.7162 111.915C82.1062 112.078 82.4328 112.317 82.6962 112.63C82.9595 112.94 83.1495 113.32 83.2662 113.77L81.7962 114.02C81.7428 113.787 81.6445 113.59 81.5012 113.43C81.3578 113.27 81.1862 113.148 80.9862 113.065C80.7895 112.982 80.5828 112.937 80.3662 112.93C80.1528 112.923 79.9512 112.953 79.7612 113.02C79.5745 113.083 79.4212 113.177 79.3012 113.3C79.1845 113.423 79.1262 113.57 79.1262 113.74C79.1262 113.897 79.1745 114.025 79.2712 114.125C79.3678 114.222 79.4895 114.3 79.6362 114.36C79.7828 114.42 79.9328 114.47 80.0862 114.51L81.3362 114.85C81.5228 114.9 81.7295 114.967 81.9562 115.05C82.1828 115.13 82.3995 115.243 82.6062 115.39C82.8162 115.533 82.9878 115.723 83.1212 115.96C83.2578 116.197 83.3262 116.497 83.3262 116.86C83.3262 117.247 83.2445 117.585 83.0812 117.875C82.9212 118.162 82.7045 118.4 82.4312 118.59C82.1578 118.777 81.8478 118.917 81.5012 119.01C81.1578 119.103 80.8028 119.15 80.4362 119.15ZM85.7951 119V113.07H83.5251V111.8H89.4251V113.07H87.1551V119H85.7951ZM89.2333 119L91.4333 111.8H93.4633L95.6633 119H94.2633L92.3033 112.65H92.5633L90.6333 119H89.2333ZM90.5533 117.5V116.23H94.3533V117.5H90.5533ZM97.3338 119V113.07H95.0638V111.8H100.964V113.07H98.6938V119H97.3338ZM104.397 119.15C103.817 119.15 103.307 119.033 102.867 118.8C102.427 118.563 102.084 118.232 101.837 117.805C101.591 117.378 101.467 116.877 101.467 116.3V111.81L102.847 111.8V116.29C102.847 116.527 102.887 116.742 102.967 116.935C103.047 117.128 103.157 117.295 103.297 117.435C103.441 117.575 103.606 117.683 103.792 117.76C103.982 117.833 104.184 117.87 104.397 117.87C104.617 117.87 104.821 117.832 105.007 117.755C105.197 117.678 105.362 117.57 105.502 117.43C105.642 117.29 105.751 117.123 105.827 116.93C105.907 116.737 105.947 116.523 105.947 116.29V111.8H107.327V116.3C107.327 116.877 107.204 117.378 106.957 117.805C106.711 118.232 106.367 118.563 105.927 118.8C105.487 119.033 104.977 119.15 104.397 119.15ZM110.84 119.15C110.307 119.15 109.825 119.057 109.395 118.87C108.969 118.68 108.617 118.41 108.34 118.06C108.067 117.707 107.894 117.287 107.82 116.8L109.24 116.59C109.34 117.003 109.547 117.322 109.86 117.545C110.174 117.768 110.53 117.88 110.93 117.88C111.154 117.88 111.37 117.845 111.58 117.775C111.79 117.705 111.962 117.602 112.095 117.465C112.232 117.328 112.3 117.16 112.3 116.96C112.3 116.887 112.289 116.817 112.265 116.75C112.245 116.68 112.21 116.615 112.16 116.555C112.11 116.495 112.039 116.438 111.945 116.385C111.855 116.332 111.74 116.283 111.6 116.24L109.73 115.69C109.59 115.65 109.427 115.593 109.24 115.52C109.057 115.447 108.879 115.342 108.705 115.205C108.532 115.068 108.387 114.888 108.27 114.665C108.157 114.438 108.1 114.153 108.1 113.81C108.1 113.327 108.222 112.925 108.465 112.605C108.709 112.285 109.034 112.047 109.44 111.89C109.847 111.733 110.297 111.657 110.79 111.66C111.287 111.667 111.73 111.752 112.12 111.915C112.51 112.078 112.837 112.317 113.1 112.63C113.364 112.94 113.554 113.32 113.67 113.77L112.2 114.02C112.147 113.787 112.049 113.59 111.905 113.43C111.762 113.27 111.59 113.148 111.39 113.065C111.194 112.982 110.987 112.937 110.77 112.93C110.557 112.923 110.355 112.953 110.165 113.02C109.979 113.083 109.825 113.177 109.705 113.3C109.589 113.423 109.53 113.57 109.53 113.74C109.53 113.897 109.579 114.025 109.675 114.125C109.772 114.222 109.894 114.3 110.04 114.36C110.187 114.42 110.337 114.47 110.49 114.51L111.74 114.85C111.927 114.9 112.134 114.967 112.36 115.05C112.587 115.13 112.804 115.243 113.01 115.39C113.22 115.533 113.392 115.723 113.525 115.96C113.662 116.197 113.73 116.497 113.73 116.86C113.73 117.247 113.649 117.585 113.485 117.875C113.325 118.162 113.109 118.4 112.835 118.59C112.562 118.777 112.252 118.917 111.905 119.01C111.562 119.103 111.207 119.15 110.84 119.15Z" fill="white"/>
</svg>
