<svg width="55" height="61" viewBox="0 0 55 61" fill="none" xmlns="http://www.w3.org/2000/svg">
<path d="M52.1875 0.974976H34.4125C33.8888 0.974976 33.3862 1.18306 33.0159 1.55337C32.6456 1.92368 32.4375 2.42625 32.4375 2.94998V7.88748C32.4375 8.4112 32.6456 8.91378 33.0159 9.28408C33.3862 9.65439 33.8888 9.86248 34.4125 9.86248H35.4V52.325C35.4 55.1473 36.906 57.7553 39.35 59.1665C41.794 60.5777 44.806 60.5777 47.25 59.1665C49.694 57.7553 51.2 55.1473 51.2 52.325V9.86248H52.1875C52.7112 9.86248 53.2138 9.65439 53.5841 9.28408C53.9544 8.91378 54.1625 8.4112 54.1625 7.88748V2.94998C54.1625 2.42625 53.9544 1.92368 53.5841 1.55337C53.2138 1.18306 52.7112 0.974976 52.1875 0.974976ZM49.225 52.325C49.225 54.442 48.0955 56.398 46.2625 57.456C44.4295 58.5145 42.1705 58.5145 40.3375 57.456C38.5045 56.398 37.375 54.442 37.375 52.325V17.7625H49.225V52.325ZM49.225 15.7875H37.375V13.8125H49.225V15.7875ZM49.225 11.8375H37.375V9.86248H49.225V11.8375ZM50.2125 7.88748V5.91248C50.2125 5.36715 49.7703 4.92498 49.225 4.92498C48.6797 4.92498 48.2375 5.36715 48.2375 5.91248V7.88748H46.2625V5.91248C46.2625 5.36715 45.8203 4.92498 45.275 4.92498C44.7297 4.92498 44.2875 5.36715 44.2875 5.91248V7.88748H42.3125V5.91248C42.3125 5.36715 41.8703 4.92498 41.325 4.92498C40.7797 4.92498 40.3375 5.36715 40.3375 5.91248V7.88748H38.3625V5.91248C38.3625 5.36715 37.9203 4.92498 37.375 4.92498C36.8297 4.92498 36.3875 5.36715 36.3875 5.91248V7.88748H34.4125V2.94998H52.1875V7.88748H50.2125Z" fill="white"/>
<path d="M43.3 56.275C44.3475 56.275 45.3522 55.8588 46.0933 55.1182C46.8339 54.3771 47.25 53.3724 47.25 52.325V43.4375C47.25 42.8922 46.8079 42.45 46.2625 42.45C45.7172 42.45 45.275 42.8922 45.275 43.4375V52.325C45.275 53.0308 44.8986 53.6828 44.2875 54.0354C43.6765 54.3881 42.9236 54.3881 42.3125 54.0354C41.7015 53.6828 41.325 53.0308 41.325 52.325V26.7741C43.1925 26.633 44.0843 25.0628 45.275 24.2066V35.5375C45.275 36.0828 45.7172 36.525 46.2625 36.525C46.8079 36.525 47.25 36.0828 47.25 35.5375V23.6875C47.2064 22.793 46.065 22.2238 45.3588 22.2221C43.5725 22.0683 42.2363 25.3724 40.6475 24.7253C40.3468 24.6288 40.0179 24.6808 39.7618 24.8659C39.5057 25.0507 39.3527 25.3465 39.35 25.6626V52.3251C39.35 53.3725 39.7662 54.3772 40.5068 55.1183C41.2479 55.8589 42.2526 56.2751 43.3 56.2751L43.3 56.275Z" fill="white"/>
<path d="M47.25 39.4875C47.25 40.0328 46.8079 40.475 46.2625 40.475C45.7172 40.475 45.275 40.0328 45.275 39.4875C45.275 38.9422 45.7172 38.5 46.2625 38.5C46.8079 38.5 47.25 38.9422 47.25 39.4875Z" fill="white"/>
<path d="M23.664 42.5866C19.2282 42.069 17.9039 43.1138 16.3715 44.3204C14.0716 46.0891 10.5096 48.244 8.22461 46.9325H8.22417C7.91778 46.7689 7.54834 46.7773 7.24989 46.9541C6.951 47.1313 6.76628 47.4514 6.76276 47.7988V54.3004C6.76276 54.8241 6.97084 55.3267 7.34115 55.697C7.71146 56.0673 8.21403 56.2754 8.73776 56.2754H22.5628C23.0865 56.2754 23.5891 56.0673 23.9594 55.697C24.3297 55.3267 24.5378 54.8241 24.5378 54.3004V43.5671C24.5378 43.0658 24.1617 42.6444 23.664 42.5866L23.664 42.5866ZM22.5628 54.3H8.73779V49.1995C12.4982 49.7276 15.3126 47.4911 17.5936 45.8715C18.8103 44.91 19.6594 44.2443 22.5628 44.4634V54.3Z" fill="white"/>
<path d="M28.4875 57.2625V32.575C29.0112 32.575 29.5138 32.3669 29.8841 31.9966C30.2544 31.6263 30.4625 31.1237 30.4625 30.6V25.6625C30.4625 25.1388 30.2544 24.6362 29.8841 24.2659C29.5138 23.8956 29.0112 23.6875 28.4875 23.6875H2.81252C2.2888 23.6875 1.78622 23.8956 1.41592 24.2659C1.04561 24.6362 0.837524 25.1388 0.837524 25.6625V30.6C0.837524 31.1237 1.04561 31.6263 1.41592 31.9966C1.78622 32.3669 2.2888 32.575 2.81252 32.575V57.2625C2.81252 58.0481 3.12464 58.802 3.68011 59.3574C4.23559 59.9127 4.98948 60.2249 5.77497 60.2249H25.525C26.3106 60.2249 27.0645 59.9128 27.6198 59.3574C28.1752 58.8019 28.4874 58.048 28.4874 57.2625H28.4875ZM26.5125 38.5H4.78752V36.525H26.5125V38.5ZM26.5125 34.55H4.78752V32.575H26.5125V34.55ZM2.81252 30.6V25.6625H28.4875V30.6H26.5125V28.625C26.5125 28.0797 26.0703 27.6375 25.525 27.6375C24.9797 27.6375 24.5375 28.0797 24.5375 28.625V30.6H22.5625V28.625C22.5625 28.0797 22.1203 27.6375 21.575 27.6375C21.0297 27.6375 20.5875 28.0797 20.5875 28.625V30.6H18.6125V28.625C18.6125 28.0797 18.1703 27.6375 17.625 27.6375C17.0797 27.6375 16.6375 28.0797 16.6375 28.625V30.6H14.6625V28.625C14.6625 28.0797 14.2203 27.6375 13.675 27.6375C13.1297 27.6375 12.6875 28.0797 12.6875 28.625V30.6H10.7125V28.625C10.7125 28.0797 10.2703 27.6375 9.72502 27.6375C9.1797 27.6375 8.73752 28.0797 8.73752 28.625V30.6H6.76252V28.625C6.76252 28.0797 6.32035 27.6375 5.77502 27.6375C5.2297 27.6375 4.78752 28.0797 4.78752 28.625V30.6H2.81252ZM4.78752 57.2625V40.475H26.5125V57.2625C26.5125 57.5244 26.4085 57.7757 26.2233 57.9608C26.0382 58.146 25.7869 58.25 25.525 58.25H5.77502C5.2297 58.25 4.78752 57.8078 4.78752 57.2625Z" fill="white"/>
</svg>
